<?xml version="1.0" encoding="iso-8859-1"?>
<!-- Generator: Adobe Illustrator 19.0.0, SVG Export Plug-In . SVG Version: 6.00 Build 0)  -->
<svg xmlns="http://www.w3.org/2000/svg" xmlns:xlink="http://www.w3.org/1999/xlink" version="1.1" id="Capa_1" x="0px" y="0px" viewBox="0 0 512 512" style="enable-background:new 0 0 512 512;" xml:space="preserve" width="512px" height="512px">
<g>
	<g>
		<polygon points="444.549,134.333 298.794,134.333 388.293,241 512,241 512,218.743   " fill="#e6e6e6"/>
	</g>
</g>
<g>
	<g>
		<polygon points="67.452,134.333 0,218.743 0,241 123.708,241 213.206,134.333   " fill="#e6e6e6"/>
	</g>
</g>
<g>
	<g>
		<path d="M484.334,482V271H374.303L271,147.881V83.333h86.63V0H241v147.881L137.698,271H27.667v211H0v30h512v-30H484.334z     M80.334,320h30v42.667h-30V320z M111.103,448h-30v-42.667h30V448z M256,209c25.916,0,47,21.084,47,47s-21.084,47-47,47    s-47-21.084-47-47C209,230.084,230.084,209,256,209z M335,482h-30V377.667h-34V482h-30V377.667h-34V482h-30V347.667h158V482z     M430.898,448h-30v-42.667h30V448z M431.666,362.667h-30V320h30V362.667z" fill="#e6e6e6"/>
	</g>
</g>
<g>
	<g>
		<path d="M256,239c-9.374,0-17,7.626-17,17c0,9.374,7.626,17,17,17c9.374,0,17-7.626,17-17C273,246.626,265.374,239,256,239z" fill="#e6e6e6"/>
	</g>
</g>
<g>
</g>
<g>
</g>
<g>
</g>
<g>
</g>
<g>
</g>
<g>
</g>
<g>
</g>
<g>
</g>
<g>
</g>
<g>
</g>
<g>
</g>
<g>
</g>
<g>
</g>
<g>
</g>
<g>
</g>
</svg>
