<?xml version="1.0"?>
<svg xmlns="http://www.w3.org/2000/svg" height="512px" viewBox="0 0 512.00007 512" width="512px"><path d="m245.964844 302c-4.816406 0-9.328125-2.3125-12.15625-6.210938-10.605469-14.679687-30.851563-23.789062-52.808594-23.789062s-42.203125 9.109375-52.808594 23.789062c-2.828125 3.894532-7.339844 6.210938-12.15625 6.210938h-73.824218l2.726562 30h71.097656c4.816406 0 9.328125 2.3125 12.15625 6.210938 10.605469 14.679687 30.851563 23.789062 52.808594 23.789062s42.203125-9.109375 52.808594-23.789062c2.828125-3.894532 7.339844-6.210938 12.15625-6.210938h70.097656l2.726562-30zm0 0" fill="#e6e6e6"/><path d="m329.703125 182h-298.402344l8.179688 90h69.40625c16.890625-18.910156 43.242187-30 72.113281-30 28.875 0 55.226562 11.089844 72.113281 30h68.40625zm0 0" fill="#e6e6e6"/><path d="m103.394531 512h155.214844c23.421875 0 42.683594-17.59375 44.808594-40.929688l9.917969-109.070312h-60.222657c-16.890625 18.910156-43.242187 30-72.113281 30s-55.226562-11.089844-72.113281-30h-61.21875l9.914062 109.070312c2.125 23.335938 22.386719 40.929688 45.8125 40.929688zm0 0" fill="#e6e6e6"/><path d="m16.601562 100.292969-15 30c-4.984374 9.972656 2.265626 21.707031 13.417969 21.707031h330.980469c11.152344 0 18.402344-11.734375 13.417969-21.707031l-15-30c-2.542969-5.082031-7.734375-8.292969-13.417969-8.292969h-90v-47c0-8.277344 6.722656-15 15-15h90c8.292969 0 15-6.707031 15-15 0-8.289062-6.707031-15-15-15h-90c-24.8125 0-45 20.1875-45 45v47h-180.980469c-5.679687 0-10.875 3.210938-13.417969 8.292969zm0 0" fill="#e6e6e6"/><path d="m452 212h-94.894531l-8.1875 90h133.082031c16.570312 0 30-13.433594 30-30 0-33.136719-26.863281-60-60-60zm0 0" fill="#e6e6e6"/><path d="m452 392c16.570312 0 30-13.433594 30-30 0-16.570312-13.429688-30-30-30h-105.808594l-5.457031 60zm0 0" fill="#e6e6e6"/><path d="m482 422h-143.992188l-4.707031 51.78125c-1.3125 14.394531-6.574219 27.445312-14.613281 38.21875h133.3125c33.136719 0 60-26.863281 60-60 0-16.570312-13.429688-30-30-30zm0 0" fill="#e6e6e6"/></svg>
